<svg width="342" height="275" viewBox="0 0 342 275" fill="none" xmlns="http://www.w3.org/2000/svg">
<path d="M212 233.729C242.425 229.874 262.23 232.932 302 197.729C325.211 172.921 330.819 155.238 335 120.729C337.859 89.2406 335.786 65.6894 329 18.7289C282.942 38.9587 258.042 51.8356 219 83.7289C183.549 121.382 181.848 149.476 187 202.729" stroke="#6F9069" stroke-width="10" stroke-linecap="round"/>
<path d="M218 60.7289L121 5.72891L5 69.7289V201.729L121 268.729C121 268.729 177 240.729 223 194.729M299 77.7289C299 77.7289 269 148.729 223 194.729M223 194.729C235.142 185.607 232.114 133.609 223 129.729M254 93.7289C264.582 127.729 259.327 149.729 264.582 141.729" stroke="#6F9069" stroke-width="10" stroke-linecap="round"/>
<path d="M159 196.729C142.5 211.729 109.168 218.648 77 206.229C46.3215 185.688 39.3404 171.578 38 131.729C39.7984 101.025 51.6 78.6775 80 65.7289C108.449 52.758 136.68 58.8831 159 76.7289" stroke="#6F9069" stroke-width="10" stroke-linecap="round"  />
</svg>
